<?xml version="1.0" encoding="utf-8"?>
<!-- Generator: Adobe Illustrator 19.1.0, SVG Export Plug-In . SVG Version: 6.00 Build 0)  -->
<svg version="1.1" id="Layer_1" xmlns="http://www.w3.org/2000/svg" xmlns:xlink="http://www.w3.org/1999/xlink" x="0px" y="0px"
	 viewBox="-1713 179.5 393.3 402.9" style="enable-background:new -1713 179.5 393.3 402.9;" xml:space="preserve">
<style type="text/css">
	.st0{fill:#0377BE;}
</style>
<g>
	<path class="st0" d="M-1511.6,553.6c5.3,0,9.7-4.3,9.7-9.7V409.7c0-5.3-4.3-9.7-9.7-9.7c-5.3,0-9.7,4.3-9.7,9.7v134.2
		C-1521.3,549.3-1516.9,553.6-1511.6,553.6z"/>
	<path class="st0" d="M-1482.8,553.6c5.3,0,9.7-4.3,9.7-9.7V409.7c0-5.3-4.3-9.7-9.7-9.7c-5.3,0-9.7,4.3-9.7,9.7v134.2
		c0,2.6,1,5,2.8,6.9C-1487.8,552.6-1485.4,553.6-1482.8,553.6z"/>
	<path class="st0" d="M-1454,553.6c5.3,0,9.7-4.3,9.7-9.7V409.7c0-5.3-4.3-9.7-9.7-9.7s-9.7,4.3-9.7,9.7v134.2
		C-1463.7,549.3-1459.4,553.6-1454,553.6z"/>
	<path class="st0" d="M-1444.5,246.8c5.3,0,9.7-4.3,9.7-9.7v-9.6c0-5.3-4.3-9.7-9.7-9.7c-5.3,0-9.7,4.3-9.7,9.7v9.6
		C-1454.1,242.5-1449.8,246.8-1444.5,246.8z"/>
	<path class="st0" d="M-1415.7,246.8c5.3,0,9.7-4.3,9.7-9.7v-9.6c0-5.3-4.3-9.7-9.7-9.7c-5.3,0-9.7,4.3-9.7,9.7v9.6
		C-1425.4,242.5-1421,246.8-1415.7,246.8z"/>
	<path class="st0" d="M-1386.9,246.8c5.3,0,9.7-4.3,9.7-9.7v-9.6c0-5.3-4.3-9.7-9.7-9.7c-5.3,0-9.7,4.3-9.7,9.7v9.6
		C-1396.6,242.5-1392.3,246.8-1386.9,246.8z"/>
	<path class="st0" d="M-1444.5,294.7c5.3,0,9.7-4.3,9.7-9.7v-9.6c0-5.3-4.3-9.7-9.7-9.7c-5.3,0-9.7,4.3-9.7,9.7v9.6
		C-1454.1,290.4-1449.8,294.7-1444.5,294.7z"/>
	<path class="st0" d="M-1415.7,294.7c5.3,0,9.7-4.3,9.7-9.7v-9.6c0-5.3-4.3-9.7-9.7-9.7c-5.3,0-9.7,4.3-9.7,9.7v9.6
		C-1425.4,290.4-1421,294.7-1415.7,294.7z"/>
	<path class="st0" d="M-1386.9,294.7c5.3,0,9.7-4.3,9.7-9.7v-9.6c0-5.3-4.3-9.7-9.7-9.7c-5.3,0-9.7,4.3-9.7,9.7v9.6
		C-1396.6,290.4-1392.3,294.7-1386.9,294.7z"/>
	<path class="st0" d="M-1444.5,342.7c5.3,0,9.7-4.3,9.7-9.7v-9.6c0-5.3-4.3-9.7-9.7-9.7c-5.3,0-9.7,4.3-9.7,9.7v9.6
		C-1454.1,338.3-1449.8,342.7-1444.5,342.7z"/>
	<path class="st0" d="M-1415.7,342.7c5.3,0,9.7-4.3,9.7-9.7v-9.6c0-5.3-4.3-9.7-9.7-9.7c-5.3,0-9.7,4.3-9.7,9.7v9.6
		C-1425.4,338.3-1421,342.7-1415.7,342.7z"/>
	<path class="st0" d="M-1386.9,342.7c5.3,0,9.7-4.3,9.7-9.7v-9.6c0-5.3-4.3-9.7-9.7-9.7c-5.3,0-9.7,4.3-9.7,9.7v9.6
		C-1396.6,338.3-1392.3,342.7-1386.9,342.7z"/>
	<path class="st0" d="M-1645.8,361.9c5.3,0,9.7-4.3,9.7-9.7v-9.6c0-5.3-4.3-9.7-9.7-9.7s-9.7,4.3-9.7,9.7v9.6
		C-1655.5,357.5-1651.1,361.9-1645.8,361.9z"/>
	<path class="st0" d="M-1617,361.9c5.3,0,9.7-4.3,9.7-9.7v-9.6c0-5.3-4.3-9.7-9.7-9.7s-9.7,4.3-9.7,9.7v9.6
		C-1626.7,357.5-1622.4,361.9-1617,361.9z"/>
	<path class="st0" d="M-1588.3,361.9c5.3,0,9.7-4.3,9.7-9.7v-9.6c0-5.3-4.3-9.7-9.7-9.7s-9.7,4.3-9.7,9.7v9.6
		C-1598,357.5-1593.6,361.9-1588.3,361.9z"/>
	<path class="st0" d="M-1645.8,409.8c5.3,0,9.7-4.3,9.7-9.7v-9.6c0-5.3-4.3-9.7-9.7-9.7s-9.7,4.3-9.7,9.7v9.6
		C-1655.5,405.5-1651.1,409.8-1645.8,409.8z"/>
	<path class="st0" d="M-1617,409.8c5.3,0,9.7-4.3,9.7-9.7v-9.6c0-5.3-4.3-9.7-9.7-9.7s-9.7,4.3-9.7,9.7v9.6
		C-1626.7,405.5-1622.4,409.8-1617,409.8z"/>
	<path class="st0" d="M-1588.3,409.8c5.3,0,9.7-4.3,9.7-9.7v-9.6c0-5.3-4.3-9.7-9.7-9.7s-9.7,4.3-9.7,9.7v9.6
		C-1598,405.5-1593.6,409.8-1588.3,409.8z"/>
	<path class="st0" d="M-1645.8,457.7c5.3,0,9.7-4.3,9.7-9.7v-9.6c0-5.3-4.3-9.7-9.7-9.7s-9.7,4.3-9.7,9.7v9.6
		C-1655.5,453.4-1651.1,457.7-1645.8,457.7z"/>
	<path class="st0" d="M-1617,457.7c5.3,0,9.7-4.3,9.7-9.7v-9.6c0-5.3-4.3-9.7-9.7-9.7s-9.7,4.3-9.7,9.7v9.6
		C-1626.7,453.4-1622.4,457.7-1617,457.7z"/>
	<path class="st0" d="M-1588.3,457.7c5.3,0,9.7-4.3,9.7-9.7v-9.6c0-5.3-4.3-9.7-9.7-9.7s-9.7,4.3-9.7,9.7v9.6
		C-1598,453.4-1593.6,457.7-1588.3,457.7z"/>
	<path class="st0" d="M-1645.8,505.7c5.3,0,9.7-4.3,9.7-9.7v-9.6c0-5.3-4.3-9.7-9.7-9.7s-9.7,4.3-9.7,9.7v9.6
		C-1655.5,501.3-1651.1,505.7-1645.8,505.7z"/>
	<path class="st0" d="M-1617,505.7c5.3,0,9.7-4.3,9.7-9.7v-9.6c0-5.3-4.3-9.7-9.7-9.7s-9.7,4.3-9.7,9.7v9.6
		C-1626.7,501.3-1622.4,505.7-1617,505.7z"/>
	<path class="st0" d="M-1588.3,505.7c5.3,0,9.7-4.3,9.7-9.7v-9.6c0-5.3-4.3-9.7-9.7-9.7s-9.7,4.3-9.7,9.7v9.6
		C-1598,501.3-1593.6,505.7-1588.3,505.7z"/>
	<path class="st0" d="M-1386.9,390.6c5.3,0,9.7-4.3,9.7-9.7v-9.6c0-5.3-4.3-9.7-9.7-9.7c-5.3,0-9.7,4.3-9.7,9.7v9.6
		C-1396.6,386.3-1392.3,390.6-1386.9,390.6z"/>
	<path class="st0" d="M-1386.9,438.6c5.3,0,9.7-4.3,9.7-9.7v-9.6c0-5.3-4.3-9.7-9.7-9.7c-5.3,0-9.7,4.3-9.7,9.7v9.6
		C-1396.6,434.2-1392.3,438.6-1386.9,438.6z"/>
	<path class="st0" d="M-1386.9,486.5c5.3,0,9.7-4.3,9.7-9.7v-9.6c0-5.3-4.3-9.7-9.7-9.7c-5.3,0-9.7,4.3-9.7,9.7v9.6
		C-1396.6,482.2-1392.3,486.5-1386.9,486.5z"/>
	<path class="st0" d="M-1386.9,534.4c5.3,0,9.7-4.3,9.7-9.7v-9.6c0-5.3-4.3-9.7-9.7-9.7c-5.3,0-9.7,4.3-9.7,9.7v9.6
		C-1396.6,530.1-1392.3,534.4-1386.9,534.4z"/>
	<path class="st0" d="M-1511.5,265.9c0-5.3-4.3-9.7-9.7-9.7h-57.5c-5.3,0-9.7,4.3-9.7,9.7s4.3,9.7,9.7,9.7h57.5
		C-1515.8,275.6-1511.5,271.2-1511.5,265.9z"/>
	<path class="st0" d="M-1329.4,563h-9.5V189.2c0-5.3-4.3-9.7-9.7-9.7h-134.2c-5.3,0-9.7,4.3-9.7,9.7v28.7H-1617
		c-5.3,0-9.7,4.3-9.7,9.7V285h-57.4c-5.3,0-9.7,4.3-9.7,9.7V563h-9.5c-5.3,0-9.7,4.3-9.7,9.7c0,5.3,4.3,9.7,9.7,9.7h373.9
		c5.3,0,9.7-4.3,9.7-9.7S-1324.1,563-1329.4,563z M-1559.6,563h-28.6v-28.7c0-5.3-4.3-9.7-9.7-9.7h-38.4c-5.3,0-9.7,4.3-9.7,9.7V563
		h-28.6V304.3h114.9V563z M-1549.9,285h-57.4v-47.7h114.9v134h-47.7v-19h19.1c5.3,0,9.7-4.3,9.7-9.7s-4.3-9.7-9.7-9.7h-19.1v-19
		h19.1c5.3,0,9.7-4.3,9.7-9.7s-4.3-9.7-9.7-9.7h-19.1C-1540.3,289.2-1544.6,285-1549.9,285z M-1425.4,563h-114.9V390.6h114.9V563z
		 M-1358.3,563h-47.7V371.3c0-5.3-4.3-9.7-9.7-9.7c-5.3,0-9.6,4.3-9.7,9.6h-9.4c-0.1-5.3-4.4-9.6-9.7-9.6c-5.3,0-9.6,4.3-9.7,9.6
		h-19V198.9h114.9V563z"/>
</g>
</svg>
